<mxfile host="app.diagrams.net" agent="Mozilla/5.0 (Macintosh; Intel Mac OS X 10_15_7) AppleWebKit/605.1.15 (KHTML, like Gecko) Version/17.5 Safari/605.1.15" version="24.7.7">
  <diagram name="Page-1" id="mP5uzz1efAgGm_52qq7V">
    <mxGraphModel dx="1352" dy="705" grid="1" gridSize="10" guides="1" tooltips="1" connect="1" arrows="1" fold="1" page="1" pageScale="1" pageWidth="827" pageHeight="1169" math="0" shadow="0">
      <root>
        <mxCell id="0" />
        <mxCell id="1" parent="0" />
        <mxCell id="9Rvq3cSdDLq9e7eol2_--9" value="" style="rounded=1;whiteSpace=wrap;html=1;" vertex="1" parent="1">
          <mxGeometry x="190" y="168.5" width="402" height="200" as="geometry" />
        </mxCell>
        <mxCell id="9Rvq3cSdDLq9e7eol2_--2" value="&lt;span style=&quot;white-space: normal; background-color: rgb(251, 251, 251);&quot;&gt;Web Application&amp;nbsp;&lt;/span&gt;" style="image;aspect=fixed;html=1;points=[];align=center;fontSize=12;image=img/lib/azure2/app_services/App_Services.svg;" vertex="1" parent="1">
          <mxGeometry x="292.25" y="248.5" width="68" height="68" as="geometry" />
        </mxCell>
        <mxCell id="9Rvq3cSdDLq9e7eol2_--6" style="edgeStyle=orthogonalEdgeStyle;rounded=0;orthogonalLoop=1;jettySize=auto;html=1;" edge="1" parent="1" source="9Rvq3cSdDLq9e7eol2_--3" target="9Rvq3cSdDLq9e7eol2_--5">
          <mxGeometry relative="1" as="geometry" />
        </mxCell>
        <mxCell id="9Rvq3cSdDLq9e7eol2_--3" value="&lt;p style=&quot;margin: 0px; font-style: normal; font-variant-caps: normal; font-stretch: normal; font-size: 13px; line-height: normal; font-family: &amp;quot;.AppleSystemUIFontMonospaced&amp;quot;; font-size-adjust: none; font-kerning: auto; font-variant-alternates: normal; font-variant-ligatures: normal; font-variant-numeric: normal; font-variant-east-asian: normal; font-variant-position: normal; font-variant-emoji: normal; font-feature-settings: normal; font-optical-sizing: auto; font-variation-settings: normal;&quot;&gt;Spring Boot API&lt;/p&gt;" style="aspect=fixed;sketch=0;html=1;dashed=0;whitespace=wrap;verticalLabelPosition=bottom;verticalAlign=top;fillColor=#2875E2;strokeColor=#ffffff;points=[[0.005,0.63,0],[0.1,0.2,0],[0.9,0.2,0],[0.5,0,0],[0.995,0.63,0],[0.72,0.99,0],[0.5,1,0],[0.28,0.99,0]];shape=mxgraph.kubernetes.icon2;prIcon=api" vertex="1" parent="1">
          <mxGeometry x="462.25" y="258.5" width="50" height="48" as="geometry" />
        </mxCell>
        <mxCell id="9Rvq3cSdDLq9e7eol2_--4" style="edgeStyle=orthogonalEdgeStyle;rounded=0;orthogonalLoop=1;jettySize=auto;html=1;entryX=-0.02;entryY=0.5;entryDx=0;entryDy=0;entryPerimeter=0;" edge="1" parent="1" source="9Rvq3cSdDLq9e7eol2_--2" target="9Rvq3cSdDLq9e7eol2_--3">
          <mxGeometry relative="1" as="geometry" />
        </mxCell>
        <mxCell id="9Rvq3cSdDLq9e7eol2_--5" value="&lt;p style=&quot;margin: 0px; font-style: normal; font-variant-caps: normal; font-stretch: normal; font-size: 13px; line-height: normal; font-family: &amp;quot;.AppleSystemUIFontMonospaced&amp;quot;; font-size-adjust: none; font-kerning: auto; font-variant-alternates: normal; font-variant-ligatures: normal; font-variant-numeric: normal; font-variant-east-asian: normal; font-variant-position: normal; font-variant-emoji: normal; font-feature-settings: normal; font-optical-sizing: auto; font-variation-settings: normal;&quot;&gt;Elasticsearch&lt;/p&gt;" style="outlineConnect=0;dashed=0;verticalLabelPosition=bottom;verticalAlign=top;align=center;html=1;shape=mxgraph.aws3.elasticsearch_service;fillColor=#F58534;gradientColor=none;" vertex="1" parent="1">
          <mxGeometry x="453.5" y="438.5" width="67.5" height="81" as="geometry" />
        </mxCell>
        <mxCell id="9Rvq3cSdDLq9e7eol2_--11" style="edgeStyle=orthogonalEdgeStyle;rounded=0;orthogonalLoop=1;jettySize=auto;html=1;entryX=0.5;entryY=0;entryDx=0;entryDy=0;" edge="1" parent="1" source="9Rvq3cSdDLq9e7eol2_--7" target="9Rvq3cSdDLq9e7eol2_--9">
          <mxGeometry relative="1" as="geometry" />
        </mxCell>
        <mxCell id="9Rvq3cSdDLq9e7eol2_--7" value="" style="image;sketch=0;aspect=fixed;html=1;points=[];align=center;fontSize=12;image=img/lib/mscae/Docker.svg;" vertex="1" parent="1">
          <mxGeometry x="366" y="48.5" width="50" height="41" as="geometry" />
        </mxCell>
        <mxCell id="9Rvq3cSdDLq9e7eol2_--10" value="Kubernetes" style="aspect=fixed;sketch=0;html=1;dashed=0;whitespace=wrap;verticalLabelPosition=bottom;verticalAlign=top;fillColor=#2875E2;strokeColor=#ffffff;points=[[0.005,0.63,0],[0.1,0.2,0],[0.9,0.2,0],[0.5,0,0],[0.995,0.63,0],[0.72,0.99,0],[0.5,1,0],[0.28,0.99,0]];shape=mxgraph.kubernetes.icon2;kubernetesLabel=1;prIcon=pod" vertex="1" parent="1">
          <mxGeometry x="202" y="175" width="50" height="48" as="geometry" />
        </mxCell>
        <mxCell id="9Rvq3cSdDLq9e7eol2_--13" style="edgeStyle=orthogonalEdgeStyle;rounded=0;orthogonalLoop=1;jettySize=auto;html=1;" edge="1" parent="1" source="9Rvq3cSdDLq9e7eol2_--12" target="9Rvq3cSdDLq9e7eol2_--2">
          <mxGeometry relative="1" as="geometry" />
        </mxCell>
        <mxCell id="9Rvq3cSdDLq9e7eol2_--12" value="" style="outlineConnect=0;dashed=0;verticalLabelPosition=bottom;verticalAlign=top;align=center;html=1;shape=mxgraph.aws3.mobile_client;fillColor=#D2D3D3;gradientColor=none;" vertex="1" parent="1">
          <mxGeometry x="60" y="251" width="40.5" height="63" as="geometry" />
        </mxCell>
      </root>
    </mxGraphModel>
  </diagram>
</mxfile>
